<svg xmlns="http://www.w3.org/2000/svg" style="display: none;">
    <symbol id="whatsapp-icon" viewBox="0 0 24 24">
        <path d="M12 0c6.627 0 12 5.373 12 12s-5.373 12-12 12c-2.212 0-4.315-.61-6.143-1.684l-5.857 1.684 1.684-5.857c-1.074-1.828-1.684-3.931-1.684-6.143 0-6.627 5.373-12 12-12zm-3.643 5.368c-.147-.329-.3-.338-.438-.344-.114-.005-.245-.005-.376-.005s-.358.052-.545.26c-.187.208-.71.694-.71 1.694s.727 1.963.828 2.1c.102.137 1.402 2.136 3.396 2.992.475.206.845.33 1.134.423.476.15.91.129 1.254.078.382-.059 1.178-.481 1.345-.945.167-.464.167-.863.117-.945-.049-.082-.179-.129-.376-.226-.197-.098-1.178-.581-1.36-.647-.182-.066-.314-.098-.446.098-.131.197-.511.647-.627.777-.115.13-.23.147-.427.049-.197-.098-.833-.307-1.588-.979-.586-.52-.981-1.161-1.096-1.357-.114-.197-.012-.303.086-.401.088-.088.197-.23.295-.344.099-.115.131-.197.197-.329.066-.131.033-.246-.016-.344-.049-.098-.445-1.068-.61-1.465z"/>
    </symbol>
</svg>
